<?xml version="1.0" encoding="utf-8"?>
<!-- Generator: Adobe Illustrator 26.3.1, SVG Export Plug-In . SVG Version: 6.00 Build 0)  -->
<svg version="1.1" id="Capa_1" xmlns="http://www.w3.org/2000/svg" xmlns:xlink="http://www.w3.org/1999/xlink" x="0px" y="0px"
	 viewBox="0 0 56 56" style="enable-background:new 0 0 56 56;" xml:space="preserve">
<style type="text/css">
	.st0{display:none;fill:#ECC042;}
	.st1{fill:#ECC042;}
	.st2{fill:none;stroke:#ECC042;stroke-width:2.4818;stroke-miterlimit:10;}
</style>
<path class="st0" d="M28,0C12.6,0,0,12.6,0,28s12.6,28,28,28s28-12.6,28-28S43.4,0,28,0z M28,54C13.7,54,2,42.3,2,28S13.7,2,28,2
	s26,11.7,26,26S42.3,54,28,54z"/>
<g>
	<path class="st1" d="M11.3,18.5h33.4c0.7,0,1.3-0.6,1.3-1.4c0-0.8-0.6-1.4-1.3-1.4H11.3c-0.7,0-1.3,0.6-1.3,1.4
		C10,17.9,10.6,18.5,11.3,18.5z"/>
	<path class="st1" d="M45,37.5H11c-0.6,0-1,0.6-1,1.4c0,0.8,0.4,1.4,1,1.4h34c0.6,0,1-0.6,1-1.4S45.6,37.5,45,37.5z"/>
	<path class="st1" d="M45,26.6H11c-0.6,0-1,0.6-1,1.4s0.4,1.4,1,1.4h34c0.6,0,1-0.6,1-1.4S45.6,26.6,45,26.6z"/>
</g>
<path class="st2" d="M50.9,54.8H5.3c-2.2,0-3.9-1.8-3.9-3.9V5.2c0-2.2,1.8-3.9,3.9-3.9h45.6c2.2,0,3.9,1.8,3.9,3.9v45.6
	C54.8,53,53.1,54.8,50.9,54.8z"/>
</svg>
