<?xml version="1.0" encoding="utf-8"?>
<!-- Generator: Adobe Illustrator 26.3.1, SVG Export Plug-In . SVG Version: 6.00 Build 0)  -->
<svg version="1.1" id="Layer_1" xmlns="http://www.w3.org/2000/svg" xmlns:xlink="http://www.w3.org/1999/xlink" x="0px" y="0px"
	 viewBox="0 0 24 24" style="enable-background:new 0 0 24 24;" xml:space="preserve">
<style type="text/css">
	.st0{fill-rule:evenodd;clip-rule:evenodd;fill:#F7F7F7;}
	.st1{fill:#F7F7F7;}
</style>
<path class="st0" d="M12,21c5,0,9-4,9-9c0-5-4-9-9-9c-5,0-9,4-9,9C3,17,7,21,12,21z M12,23c6.1,0,11-4.9,11-11c0-6.1-4.9-11-11-11
	C5.9,1,1,5.9,1,12C1,18.1,5.9,23,12,23z"/>
<path class="st1" d="M16,12l-6,4.3V7.7L16,12z"/>
</svg>
