<?xml version="1.0" encoding="utf-8"?>
<!-- Generator: Adobe Illustrator 26.3.1, SVG Export Plug-In . SVG Version: 6.00 Build 0)  -->
<svg version="1.1" id="Layer_1" xmlns="http://www.w3.org/2000/svg" xmlns:xlink="http://www.w3.org/1999/xlink" x="0px" y="0px"
	 viewBox="0 0 24 24" style="enable-background:new 0 0 24 24;" xml:space="preserve">
<style type="text/css">
	.st0{fill-rule:evenodd;clip-rule:evenodd;fill:#1E1E1E;}
	.st1{fill:#F7F7F7;}
</style>
<path class="st0" d="M1,12C1,5.9,5.9,1,12,1c6.1,0,11,4.9,11,11c0,6.1-4.9,11-11,11C5.9,23,1,18.1,1,12z"/>
<path class="st1" d="M16.3,9.3c0.4-0.4,0.4-1,0-1.4c-0.4-0.4-1-0.4-1.4,0L12,10.6L9.3,7.7c-0.4-0.4-1-0.4-1.4,0C7.5,8,7.5,8.6,7.9,9
	l2.7,2.9l-2.9,2.7c-0.4,0.4-0.4,1,0,1.4c0.4,0.4,1,0.4,1.4,0l2.9-2.7l2.7,2.9c0.4,0.4,1,0.4,1.4,0c0.4-0.4,0.4-1,0-1.4L13.4,12
	L16.3,9.3z"/>
</svg>
