<?xml version="1.0" encoding="utf-8"?>
<!-- Generator: Adobe Illustrator 26.2.1, SVG Export Plug-In . SVG Version: 6.00 Build 0)  -->
<svg version="1.1" id="Layer_1" xmlns="http://www.w3.org/2000/svg" xmlns:xlink="http://www.w3.org/1999/xlink" x="0px" y="0px"
	 viewBox="0 0 776.3 510" style="enable-background:new 0 0 776.3 510;" xml:space="preserve">
<style type="text/css">
	.st0{fill:#F2F2F2;}
	.st1{fill:#2F2E41;}
	.st2{fill:#9E616A;}
	.st3{fill:#FFB6B6;}
	.st4{fill:#FFB8B8;}
	.st5{fill:#ECC042;}
</style>
<g>
	<circle class="st0" cx="113.4" cy="382.8" r="113.4"/>
	<circle class="st1" cx="114.5" cy="342.3" r="45.2"/>
	<path class="st0" d="M227.5,122.5c-0.1,62.7-51,113.3-113.6,113.2S0.5,184.7,0.6,122.1C0.7,59.4,51.6,8.7,114.3,8.8
		c62.5-0.1,113.2,50.6,113.2,113.1C227.5,122.1,227.5,122.3,227.5,122.5z"/>
	<circle class="st0" cx="382.6" cy="382.8" r="113.4"/>
	<circle class="st0" cx="382.3" cy="122.3" r="113.4"/>
	<circle class="st0" cx="658.8" cy="122.3" r="113.4"/>
	<circle class="st0" cx="662.9" cy="382.8" r="113.4"/>
	<path class="st1" d="M61.5,85.4c4.7-14.9,15.4-28.7,30.1-33.7c14.8-5.1,36.4,2.6,47.4,13.7c20.3,20.2,25.2,89.7,11.3,111.6
		c-2.8-0.1-12.3-0.3-15.1-0.4l-4-13.2v13.1c-4.5-0.1-9-0.2-13.5-0.3c-31.6-0.4-57.3-25.7-58.1-57.4C59.3,104.3,59.6,91.2,61.5,85.4z
		"/>
	<circle class="st2" cx="112.4" cy="102.6" r="32.3"/>
	<path class="st1" d="M84.5,74.2l37.2-18.6l0,0c15.5,7,26,21.8,27.4,38.8l0.9,11.1l-15.6-4l-1.7-14.2l-2.6,13.1l-7.2-1.8l0.1-22.1
		l-7.2,22l-25.7-5.9L84.5,74.2z"/>
	<circle class="st1" cx="351.5" cy="324.2" r="16"/>
	<circle class="st1" cx="377.1" cy="360.5" r="40.6"/>
	<circle class="st2" cx="380.5" cy="368.1" r="33"/>
	<path class="st1" d="M402.9,334.5c-17.8-10.9-41-5.2-51.9,12.6c-3.7,6.1-5.6,13.2-5.5,20.4c16.8,4.2,34.4,7.4,52.4,1l4.2-10.4
		l2.5,10.4c5.5,2.2,10.9,4.1,16.4,0C421.4,354.7,414.5,341.8,402.9,334.5z"/>
	<path class="st1" d="M336.6,280.7c-11.1-5.1-25-2.7-34.2,5.3c-9.2,8-13.6,20.9-11.8,33c1.8,12.3,9.3,22.9,16.2,33.2
		c6.9,10.3,13.6,21.7,13.6,34.1c0,18.6-15.1,33.8-33.7,33.8c10.5,4.5,21.5,9.1,32.9,8.6c11.4-0.5,23.4-7.9,25.3-19.2
		c1.3-8.1-2.6-16.1-6-23.6c-5.4-12.3-9.3-25.2-11.7-38.4c-1.1-6.3-1.8-12.9,0.2-19c3.4-9.2,12.4-15.2,22.2-14.7l3.8-3.4
		C355,298.4,347.6,285.8,336.6,280.7z"/>
	<path class="st1" d="M612.5,77.9c-1.6,8.4-4.1,16.5-7.6,24.3c-20,42.3,37,28.5,57.3,28.5c22.3,0,43.6,11.7,40.3-40.3
		c-1.4-22.2-18.1-40.3-40.3-40.3C643.2,50.1,616.5,58.5,612.5,77.9z"/>
	<circle class="st3" cx="658.9" cy="97.9" r="32.8"/>
	<path class="st1" d="M636.6,64.5c17.7-10.8,40.8-5.2,51.6,12.5c3.7,6.1,5.6,13.1,5.5,20.2c-16.7,4.2-34.2,7.4-52,1L637.5,88
		L635,98.3c-5.4,2.2-10.9,4.1-16.3,0C618.2,84.6,625.1,71.8,636.6,64.5z"/>
	
		<ellipse transform="matrix(7.088903e-02 -0.9975 0.9975 7.088903e-02 -245.8049 442.2068)" class="st4" cx="114.5" cy="353.1" rx="40.4" ry="40.4"/>
	<circle class="st4" cx="386.9" cy="96.8" r="37"/>
	<path id="bd502a69-4a38-4003-a7a1-fa248c8198be-111" class="st1" d="M419.5,72.4c0,0,9.6-18.4-11.6-20.1c0,0-18.1-16.4-36.5-3
		c0,0-10,0-15.5,11.4c0,0-7.9-3-9.6,5c0,0-5.8,16.7,0,31.8s7.7,16.7,7.7,16.7s-4.1-18.7,19.1-20.4s44.3-16.2,46.3,2.3s4,10.1,4,10.1
		S441.6,79.9,419.5,72.4z"/>
	<circle class="st3" cx="659.7" cy="360.6" r="36.2"/>
	<path class="st5" d="M198.2,457.3C157.3,503.9,86.7,509,39.5,468.8l9.7-27.1c4.5-9.8,14-16.4,24.8-17l6.2-0.4L95,411.5
		c0,0,39.8-1.4,39.2-2.1l24.1,14.5l0-0.1l9.5,0.6c10.8,0.7,20.3,7.2,24.8,17L198.2,457.3z"/>
	<path class="st5" d="M468,458.7c-40.9,46.5-111.6,51.6-158.7,11.5L319,443c4.5-9.8,14-16.4,24.8-17l6.2-0.4l14.8-12.7
		c0,0,39.8-1.4,39.2-2.1l24.1,14.5l0-0.1l9.5,0.6c10.8,0.7,20.3,7.2,24.8,17L468,458.7z"/>
	<path class="st5" d="M748,458.7c-40.9,46.5-111.6,51.6-158.7,11.5L599,443c4.5-9.8,14-16.4,24.8-17l6.2-0.4l14.8-12.7
		c0,0,39.8-1.4,39.2-2.1l24.1,14.5l0-0.1l9.5,0.6c10.8,0.7,20.3,7.2,24.8,17L748,458.7z"/>
	<path class="st5" d="M198.2,197.3C157.3,243.9,86.7,249,39.5,208.8l9.7-27.1c4.5-9.8,14-16.4,24.8-17l6.2-0.4L95,151.5
		c0,0,39.8-1.4,39.2-2.1l24.1,14.5l0-0.1l9.5,0.6c10.8,0.7,20.3,7.2,24.8,17L198.2,197.3z"/>
	<path class="st5" d="M467,197.7c-40.9,46.5-111.6,51.6-158.7,11.5L318,182c4.5-9.8,14-16.4,24.8-17l6.2-0.4l14.8-12.7
		c0,0,39.8-1.4,39.2-2.1l24.1,14.5l0-0.1l9.5,0.6c10.8,0.7,20.3,7.2,24.8,17L467,197.7z"/>
	<path class="st5" d="M747,197.7c-40.9,46.5-111.6,51.6-158.7,11.5L598,182c4.5-9.8,14-16.4,24.8-17l6.2-0.4l14.8-12.7
		c0,0,39.8-1.4,39.2-2.1l24.1,14.5l0-0.1l9.5,0.6c10.8,0.7,20.3,7.2,24.8,17L747,197.7z"/>
	<path class="st1" d="M697.9,338.2c-3.1-11-10-20.4-19.6-26.6c-7.6-4.9-17.1-7.3-25.7-4.8c-8.6,2.6-15.7,11-15.2,20.2
		c-3.1-1.1-6.6,0.3-8.9,2.8c-2.3,2.4-3.5,5.6-4.4,8.9c-2.8,10.2-2.6,21.1,0.5,31.2l-0.2,1.5c4.2-0.7,7.4-4.3,9.4-8.1
		c2-3.8,3.1-8.1,5.3-11.8c2.1-3.7,5.7-7.1,10-7.2l-0.4,6.5c3.7-1.9,7.3-3.8,11-5.7c-0.9,2.1-1.7,4.2-2.6,6.2c3.2-1.3,6.4-2.7,9.6-4
		c-0.4,2-0.7,4-1.1,6c3.2-7.2,13-10.4,19.6-6.4c3.9,2.3,6.4,6.5,7.8,10.9c1.3,4.4,1.6,9,1.9,13.6C699.9,361,701,349.2,697.9,338.2z"
		/>
	<path class="st1" d="M157.1,338.9c0.3-3,0.4-6,0.4-9.1c0.2-6-0.9-12-3.2-17.5c-2.8-6.1-7.8-11-14.1-13.6c-6.2-2.5-13.1-2.5-19.2,0
		c-5.6-3.5-11.8-6.3-18.3-6.7c-6.5-0.3-13.4,2.1-17.4,7.4c-0.9,1.4-1.9,2.7-3,4c-3.2,3-8.1,2.6-12.4,1.9c1.9,1.6,3.9,3.3,5.8,4.9
		c-2.3,0.6-4.7,1.2-7,1.8c2.7,1.6,5.4,3.3,8.2,4.9c-7.9,4.7-11.5,15.1-10.5,24.5c0.9,8.9,5.2,17,10.3,24.2c2-4.3,1.6-9.5,1.6-14.4
		c0-1.6,0.1-3.2,0.3-4.7c17.3,4.2,35.5,6.8,53.8,0.2l3.7-9c0.5,0.1,1,0.1,1.6,0.2l2.1,8.9c4.8,2,9.7,3.7,14.6,1.9
		c0.2,1.4,0.4,2.8,0.5,4.1c0.4-1.6,0.8-3.2,1.1-4.9c0.6-0.3,1.3-0.7,1.8-1.2C157.7,344.3,157.5,341.5,157.1,338.9z"/>
</g>
</svg>
